<svg xmlns="http://www.w3.org/2000/svg" viewBox="0 0 1519.06 1274.16"><defs><style>.cls-1{fill:#fff;stroke:#fff;stroke-linecap:round;stroke-linejoin:round;stroke-width:0;}</style></defs><title>curly-logo-white</title><g id="Layer_2" data-name="Layer 2"><path class="cls-1" d="M1518.4,1067.22c-2.89-12.67-21.44-20.8-29.31-10.46-93.27,122.64-269.75,174.13-414.34,120.91-84.41-31.08-154.16-92.2-216.78-156.76-9.74-10-19.76-20.92-22.79-34.58a35.82,35.82,0,0,1-36.49-6.45c54.64-108,11.15-244.44-70-334.29S535.71,501.1,428.94,444c-41.49-22.18-84.65-47-108-87.83C390.13,349.51,457.3,311,491.2,250.27s29.75-142.66-16-195C427.3.35,342.38-13.31,274.34,12.82S155.08,99,127.07,166.3c-25.39,61-30.84,138.37,13.89,187-42,10.12-89.31-6.67-115.54-41-6.74-8.84-22.78-2.1-25,8.79s4.91,21.57,13.3,28.86a76.48,76.48,0,0,0,58.26,18c26.76,11.87,56.46,14.73,85.34,19.5,119.67,19.8,230.39,74.26,339.11,128,30.95,15.31,62.86,31.37,84.79,58,13.64,16.59,22.65,36.41,31.51,56,37.38,82.61,75.66,170.89,63,260.67-101.76-75.08-232.62-102.22-359-99.18-41,1-83,5.24-119.51,23.81-64.84,33-101.51,108.65-99.31,181.36s38.62,141.36,88.78,194c24.14,25.36,51.84,47.81,83.59,62.55,83.65,38.83,182.72,19.37,268.75-13.86a919.41,919.41,0,0,0,252.65-147.62c8.58-7.07,20.65-14.59,29.82-8.3,104.65,71.87,220,134.86,346,149.81s265-26.58,339.1-129.63C1514.14,1092.54,1521.3,1079.89,1518.4,1067.22ZM290.3,332.4c-16.58,0-28.86-14.92-37.82-28.87-18-28.07-33.2-58.16-42.63-90.15-1.79-6.06-3.36-12.6-1.34-18.59,1.5-4.43,4.79-8,7.49-11.79,6.7-9.44,9.65-23.32,2.16-32.15-8.68-10.23-7.63-25.89-1.88-38C225.2,94,243.5,81,263.1,74s40.63-8.73,61.38-10.25c26-1.9,52.71-3.49,77.55,4.38,9.46,3,18.59,7.42,26,14,27.93,24.6,24.31,69.83,45,100.74,1.43,2.12,3,4.25,3.52,6.75s-.09,5.24-.79,7.78c-14.07,51.59-54.11,95.38-104.24,114-10.91,4-22.2,7-33.46,9.86l-34.84,9C299,331.29,294.71,332.4,290.3,332.4ZM652,978.42a457.73,457.73,0,0,1-88.72,138.75c-13.68,14.67-28.43,28.53-45.34,39.31-12.32,7.86-25.65,14-39.12,19.67-36.72,15.47-75.17,27.69-114.82,31.54s-80.72-1-116.63-18.24c-8.83-4.25-17.37-9.26-24.72-15.75-15.73-13.88-25-33.49-33.83-52.52q-11.58-24.9-23.14-49.8c-5.34-11.49-10.7-23-14.5-35.11-6.65-21.17-8.37-43.52-9.91-65.65-.51-7.39-1-14.84-.18-22.2,1.35-11.95,6.14-23.25,11.73-33.9,12.11-23,28.65-44.28,50.52-58.4,30.91-20,69.32-24,106.11-24.61A733.49,733.49,0,0,1,576,876.66c29,10.7,58.56,24.21,77.32,48.76C664.52,940.15,659,961.26,652,978.42Z"/></g></svg>